#!OML:ASF F:\VICON\USERDATA\INSTALL\rory3\rory3.ASF
:FULLY-SPECIFIED
:DEGREES
53
root 0.6467878288801753 18.071840058131052 -15.558107161918723 11.60489711012589 -0.9417726334875788 -0.5321988458353517
lfemur -29.84453278845198 6.636896552610431 -19.921583677951084
ltibia 37.033259855030906
lfoot -11.444876004546105 5.116867664434341
ltoes 4.530218628643315
rfemur -28.048298828408043 -3.0020450690924445 18.34555262070942
rtibia 36.80215814485776
rfoot -15.327369446051543 -4.241526130035133
rtoes 9.587122978526693
lowerback 6.865987291642616 -0.08635793872650528 0.53474754324506
upperback 7.7086129101674095 -0.1558490710022892 1.6606000804052037
thorax 3.2481741153795665 -0.1710927300433066 1.9643259735321723
lowerneck -13.260070307454942 0.6154066656466128 -1.9403561559111433
upperneck 22.33859683414872 1.721050946367836 -1.3369415462738545
head 9.47465287625253 0.8071158807450654 0.03839564191083089
lclavicle -1.1380188076403005e-17 -8.151404056480937e-16
lhumerus -15.873907698765525 -4.596137378569928 84.0018912033236
lradius 23.008117488862805
lwrist 6.544135043625277
lhand -24.279159949858023 -2.2765381120094244
lfingers 7.125019999999999
lthumb 1.8283623626873395 27.43926261208068
rclavicle -1.1150654528587626e-17 -8.153024921715244e-16
rhumerus -22.637683949629512 -9.75137640062654 -81.848113078367
rradius 27.68353256524889
rwrist 28.01639938820028
rhand -18.104930935387177 -25.924087806042348
rfingers 7.125019999999999
rthumb 8.903365053558018 -55.63015570518546
54
root 0.6401149793960145 18.102903976084583 -15.579439172728998 11.102544760559697 -0.9145516938308155 -0.5659817558697462
lfemur -30.24807524732509 6.69152946485015 -19.8173874522804
ltibia 38.314041211306765
lfoot -11.893395044892902 5.101720786131773
ltoes 3.83831492243804
rfemur -27.330294092135926 -3.090892933416524 18.348145245021882
rtibia 36.90099705784238
rfoot -15.710388174361439 -4.1855046202875
rtoes 9.014009233603794
lowerback 6.933954626065141 -0.1399110126317762 0.569600613285696
upperback 7.988864324697359 -0.22859250288520158 1.656320456436359
thorax 3.201875717723409 -0.2077154656128466 1.927137244152408
lowerneck -13.248640011119722 0.7239098245871307 -1.9641377761469099
upperneck 22.137409902947162 1.7894661923567166 -1.2788635920895683
head 9.358621785211238 0.8794573532249051 0.08703480944030495
lclavicle -1.1673504677998179e-17 -8.155350024763992e-16
lhumerus -15.999191148955058 -4.038338800598911 84.5442429030652
lradius 22.698329796572622
lwrist 5.948541808984326
lhand -24.77517307314542 -2.396717958437299
lfingers 7.125019999999999
lthumb 1.290167518703061 27.30589520605837
rclavicle -1.1315866233039048e-17 -8.155204238654844e-16
rhumerus -21.820177800918806 -9.010628923459574 -82.40000452155066
rradius 28.41632191980431
rwrist 27.528518883772293
rhand -18.23585969674724 -25.944416087148504
rfingers 7.125019999999999
rthumb 8.800088453854917 -55.60505994171848
55
root 0.6319797590438695 18.194259973587997 -15.58866371239381 11.097880945708319 -0.8192272173888424 -0.4946225964824531
lfemur -30.60075934522385 6.732414243142256 -19.82734322149983
ltibia 39.06619699020824
lfoot -11.857431596889803 4.99099927074613
ltoes 3.6237324732834555
rfemur -26.700389744498054 -3.145412607574491 18.241268456425107
rtibia 36.511927867072956
rfoot -15.589291619050174 -4.15359593499859
rtoes 9.076780687230343
lowerback 6.852824460955365 -0.21527534309401264 0.47358279322196106
upperback 8.149078397995284 -0.3328172311632533 1.626191079363422
thorax 3.2128885453902445 -0.26315995657431657 1.9113050813398582
lowerneck -13.220224141961802 0.8047483013625967 -1.9580029376867705
upperneck 21.98190853263481 1.8324100946128399 -1.2059750000163851
head 9.232327178167566 0.9407699365572068 0.1271454548759725
lclavicle -1.1840394573994291e-17 -8.157664079652144e-16
lhumerus -16.127452499949506 -4.312362611384098 85.37273951141303
lradius 22.613635815574334
lwrist 5.875630741808814
lhand -25.544258584524385 -2.6114170800246086
lfingers 7.125019999999999
lthumb 0.5963779242160933 27.106638853929955
rclavicle -1.1488435231882798e-17 -8.157482129668361e-16
rhumerus -21.069754429513402 -7.662659703144525 -83.02526869479928
rradius 29.45581166050702
rwrist 26.59497460088411
rhand -18.34563515049961 -25.97100476906281
rfingers 7.125019999999999
rthumb 8.707384546364366 -55.59479682502461
56
root 0.6212712931782588 18.308879311790935 -15.574881263359806 11.255850308014985 -0.7096752954844991 -0.42768902813413245
lfemur -30.697421764680318 6.765227239659952 -19.83739800384249
ltibia 39.226463516214544
lfoot -11.285464496746387 4.7100749449343775
ltoes 3.967665094793966
rfemur -25.646311584969354 -3.155928638980106 18.157412135426387
rtibia 35.69895595664884
rfoot -15.119070976958778 -4.163942962378684
rtoes 9.6140307344997
lowerback 6.858257460260023 -0.2780638745053855 0.38391334355545026
upperback 8.316947147484717 -0.41846322546040293 1.6009000540462963
thorax 3.2444544201048116 -0.30914341104361565 1.8945091731608477
lowerneck -13.191476252567139 0.846577848395277 -1.9476465587244696
upperneck 21.864049281729304 1.8486177229160625 -1.1301056964325684
head 9.110560732740055 0.9753941741746434 0.15863407344945757
lclavicle -1.1483724315343735e-17 -8.153114140108297e-16
lhumerus -16.344141113712407 -5.320845019070333 86.23600462572146
lradius 22.77891341636246
lwrist 6.666175057964632
lhand -26.391555272756964 -2.847970374468221
lfingers 7.125019999999999
lthumb -0.12368826687944012 26.906172518376547
rclavicle -1.1454560606658261e-17 -8.157037254741314e-16
rhumerus -20.503158851711138 -5.828789010556823 -83.58394698578257
rradius 30.68139042282297
rwrist 25.327579079497728
rhand -18.462227618209177 -25.990713821813287
rfingers 7.125019999999999
rthumb 8.599810036177878 -55.57432327985578
57
root 0.6061321318616948 18.414776055659924 -15.556076989613079 11.317107770496097 -0.5643016389889121 -0.37871614630955397
lfemur -30.51272457758544 6.785697298413145 -19.821097284036448
ltibia 38.978958819211705
lfoot -10.537589775440827 4.322821631092072
ltoes 4.6337614049719
rfemur -24.295346578182 -3.1598732415043167 18.113370703237653
rtibia 34.639564726946354
rfoot -14.64840360524159 -4.216513166379105
rtoes 10.211554826352652
lowerback 7.078446384133999 -0.3307066801920379 0.2971471282389777
upperback 8.529533672296814 -0.48838131706901877 1.5880874295666523
thorax 3.2591765293376214 -0.34549227761832946 1.8845201189700782
lowerneck -13.17707231495661 0.8621208228603265 -1.9346862081444236
upperneck 21.829628158706704 1.8668246573561604 -1.0935005132899724
head 9.059935144853926 0.9849209209357604 0.17262958609208723
lclavicle -1.1424770868733756e-17 -8.152361861520337e-16
lhumerus -16.62017975333646 -6.342940118169675 86.88319960199748
lradius 22.925775210901566
lwrist 7.596280927511435
lhand -26.989108259329345 -3.025690070342133
lfingers 7.125019999999999
lthumb -0.6104791056144215 26.74512626615855
rclavicle -1.1320709575542777e-17 -8.15527312519568e-16
rhumerus -20.109765335148094 -3.8365660217522572 -83.97770453543612
rradius 31.94066614027844
rwrist 24.008380263418452
rhand -18.583103145334498 -25.998710133735113
rfingers 7.125019999999999
rthumb 8.471707745342355 -55.55549372171444
